<svg width="1552" height="494" viewBox="0 0 1552 494" fill="none" xmlns="http://www.w3.org/2000/svg">
<g filter="url(#filter0_d_319_2247)">
<rect x="4" width="1544" height="482" rx="10" fill="#4F545C" fill-opacity="0.4"/>
<g clip-path="url(#clip0_319_2247)">
<path d="M1548 0H2.54883V483.452H1548V0Z" fill="url(#paint0_linear_319_2247)"/>
<path d="M277.35 0C128.274 117.208 2.54883 288.105 2.54883 288.105V0H277.35Z" fill="url(#paint1_linear_319_2247)"/>
<path d="M1329.98 0C1098.31 119.911 817.367 273.117 817.367 273.117C892.09 206.281 1120.44 42.878 1209.78 0H1329.98Z" fill="url(#paint2_linear_319_2247)"/>
<path d="M999.135 106.519C1076.93 44.2295 1124.12 13.3917 1124.12 13.3917C1064.76 24.3262 1029.61 58.8498 999.135 106.519Z" fill="url(#paint3_linear_319_2247)"/>
<path d="M854.114 0C572.185 185.518 145.111 483.452 145.111 483.452H2.54883L598.854 0H854.114Z" fill="url(#paint4_linear_319_2247)"/>
<path d="M542.935 0C478.782 48.1609 403.199 106.396 317.785 174.706C359.816 109.222 404.059 50.3723 454.325 0H542.935Z" fill="url(#paint5_linear_319_2247)"/>
<path d="M1109.87 60.8155L1115.52 58.2353C1115.64 58.2353 1115.64 58.1125 1115.52 57.9897L1109.87 55.5325H1109.74L1107.16 49.7581H1106.92L1104.46 55.5325C1104.43 55.5325 1104.39 55.5454 1104.37 55.5685C1104.35 55.5914 1104.33 55.6228 1104.33 55.6553L1098.68 58.1125C1098.56 58.2353 1098.56 58.3583 1098.68 58.3583L1104.33 60.9383H1104.46L1106.92 66.7127H1107.16L1109.74 60.9383L1109.87 60.8155Z" fill="#5047FF"/>
<path d="M985.001 381.847L990.777 379.389C990.9 379.267 990.9 379.144 990.777 379.144L985.001 376.564L982.419 370.912C982.419 370.79 982.296 370.79 982.174 370.912L979.716 376.564H979.593L973.939 379.144C973.817 379.144 973.817 379.267 973.939 379.389L979.593 381.847H979.716L982.174 387.499C982.296 387.621 982.419 387.621 982.419 387.499L985.001 381.847Z" fill="#8088FF"/>
<path d="M407.254 33.172H406.886L396.07 48.5294V48.898L406.886 64.2553H407.254C410.941 58.9725 414.26 54.181 418.069 48.898V48.5294C414.26 43.2464 410.941 38.455 407.254 33.172Z" fill="#584FFF"/>
<path d="M438.595 69.9069L442.159 68.3098C442.281 68.3098 442.281 68.187 442.159 68.187L438.595 66.4669L436.874 62.904C436.874 62.7812 436.874 62.7812 436.75 62.904L435.153 66.4669L431.467 68.187L435.153 69.7841L436.75 73.47H436.874L438.595 69.7841V69.9069Z" fill="#5047FF"/>
<path d="M1525.7 221.158L1527.41 220.425C1527.54 220.425 1527.54 220.425 1527.41 220.303L1525.7 219.568L1524.96 217.857L1524.1 219.568L1522.39 220.303L1524.1 221.036L1524.96 222.748L1525.7 221.036V221.158Z" fill="#B8A3FF"/>
<path d="M1283.24 446.006L1288.88 443.56C1289 443.438 1289 443.315 1288.88 443.315L1283.24 440.748H1283.12L1280.55 435H1280.3L1277.85 440.748H1277.73L1272.09 443.315C1271.97 443.315 1271.97 443.438 1272.09 443.56L1277.73 446.006H1277.85L1280.3 451.63H1280.55L1283.12 446.006C1283.14 445.995 1283.16 445.989 1283.18 445.989C1283.2 445.989 1283.22 445.995 1283.24 446.006Z" fill="#CCBDFF"/>
<path d="M2.67188 66.1942C62.9454 33.6828 99.8202 80.9834 120.034 108.361C185.453 68.761 265.45 112.761 260.55 197.096C321.558 204.551 397.023 265.785 321.313 382.875H2.67188V66.1942Z" fill="#7E61FF"/>
<path d="M128.73 244.641C160.338 221.663 214.485 220.197 234.454 244.641C256.015 239.386 287.133 240.12 304.896 260.897H128.73V244.641Z" fill="#9F80FF"/>
<path d="M323.028 372.855C309.92 310.032 232.25 317.976 209.097 322.375C197.703 262.976 146.74 233.642 91.8572 227.53C82.3015 203.819 53.8799 174.975 2.67188 189.519V482H490.128C477.511 417.344 430.712 368.943 323.028 372.855Z" fill="#CCBDFF"/>
<path d="M70.2957 253.931C129.222 252.463 183.86 281.921 209.097 322.377C197.703 262.976 146.74 233.642 91.8572 227.53C85.7319 212.253 71.6434 194.774 48.7344 188.297C63.1904 202.964 63.6803 215.063 70.2957 253.931Z" fill="url(#paint6_linear_319_2247)"/>
<path d="M323.028 372.855C314.085 329.954 274.882 320.054 243.644 319.565C272.678 323.11 299.63 343.765 300.119 375.665C246.705 387.644 234.946 404.999 234.946 404.999C319.475 404.144 384.404 418.444 429.12 482L490.128 482C477.509 417.344 430.712 368.943 323.028 372.855Z" fill="url(#paint7_linear_319_2247)"/>
<path d="M683.529 483.452C764.151 402.733 926.5 399.048 1012.16 420.793C1081.11 346.095 1221.09 323.734 1307.61 373.125C1401.14 426.569 1420.8 483.452 1420.8 483.452H683.529Z" fill="#7269FF"/>
<path d="M534.823 407.402C501.026 343.146 414.137 351.623 357.112 390.938C254.122 362.804 77.7629 403.225 85.0139 483.452H811.837C781.973 408.016 624.907 371.526 534.823 407.402Z" fill="#7269FF"/>
<path d="M945.796 483.452C925.271 450.772 863.331 436.028 817.367 444.874C794.876 401.873 725.561 378.039 674.804 425.708C628.963 421.654 568.252 436.765 562.475 483.452H945.796Z" fill="#7A73FF"/>
<path d="M1000.49 464.163H768.33C798.808 450.158 852.147 447.331 877.956 455.808C913.228 438.24 968.04 437.747 1000.49 464.163Z" fill="#8088FF"/>
<path d="M441.543 444.751H562.107C534.946 433.08 478.905 433.939 441.543 444.751Z" fill="#8088FF"/>
<path d="M1548 88.2314V198.658L1280.5 325.47L1239.45 248.674C1201.46 156.712 1268.86 105.963 1334.91 122.472C1336.01 110.732 1347.04 85.9079 1374.73 84.6849C1374.49 34.3021 1400.95 16.2035 1433.67 21.095C1452.42 23.9076 1464.92 36.6256 1471.79 56.0695C1501.56 53.6237 1527.79 58.393 1548 88.2314Z" fill="#6B52FB"/>
<path d="M1413.21 246.472C1386.25 246.961 1363.83 255.888 1349.61 279.123C1280.5 228.496 1163.23 268.606 1189.82 403.247C1111.03 401.046 1073.9 426.114 1060.42 482H1548V135.557C1483.92 106.085 1404.39 148.031 1413.21 246.472Z" fill="#CCBDFF"/>
<path d="M1413.21 246.472C1391.89 246.839 1364.44 253.32 1348.63 278.146C1317.87 250.508 1257.58 246.472 1217.76 283.77C1260.53 255.399 1305.74 280.591 1320.32 317.033C1327.19 311.285 1333.31 306.15 1339.07 301.868L1339.44 301.625L1340.79 300.768C1358.07 288.785 1400.1 272.398 1446.66 296.855C1453.28 260.414 1456.22 244.271 1480.73 222.137C1436.25 211.498 1423.38 228.006 1413.21 246.472Z" fill="url(#paint8_linear_319_2247)"/>
<path d="M1200.97 439.443C1196.07 427.774 1192.34 415.649 1189.82 403.247C1125.86 400.067 1092.89 418.287 1077.58 443.112C1097.67 422.691 1152.57 421.101 1200.97 439.443Z" fill="url(#paint9_linear_319_2247)"/>
<path d="M1244.59 314.954C1220.82 314.954 1211.14 331.096 1210.53 347.605C1227.81 330.851 1244.59 314.954 1244.59 314.954Z" fill="url(#paint10_linear_319_2247)"/>
<path d="M1421.05 420.978L1423.38 419.999C1423.5 419.999 1423.5 419.877 1423.38 419.877L1421.05 418.899L1419.95 416.576L1418.85 418.899L1416.52 419.877C1416.4 419.877 1416.4 419.999 1416.52 419.999L1418.85 420.978L1419.95 423.302L1421.05 420.978Z" fill="#CCBDFF"/>
</g>
</g>
<defs>
<filter id="filter0_d_319_2247" x="0" y="0" width="1552" height="494" filterUnits="userSpaceOnUse" color-interpolation-filters="sRGB">
<feFlood flood-opacity="0" result="BackgroundImageFix"/>
<feColorMatrix in="SourceAlpha" type="matrix" values="0 0 0 0 0 0 0 0 0 0 0 0 0 0 0 0 0 0 127 0" result="hardAlpha"/>
<feMorphology radius="6" operator="erode" in="SourceAlpha" result="effect1_dropShadow_319_2247"/>
<feOffset dy="8"/>
<feGaussianBlur stdDeviation="5"/>
<feColorMatrix type="matrix" values="0 0 0 0 0 0 0 0 0 0 0 0 0 0 0 0 0 0 0.05 0"/>
<feBlend mode="normal" in2="BackgroundImageFix" result="effect1_dropShadow_319_2247"/>
<feBlend mode="normal" in="SourceGraphic" in2="effect1_dropShadow_319_2247" result="shape"/>
</filter>
<linearGradient id="paint0_linear_319_2247" x1="775.274" y1="32.1646" x2="775.274" y2="555.509" gradientUnits="userSpaceOnUse">
<stop stop-color="#4E1BF5"/>
<stop offset="0.58" stop-color="#5E4EEE"/>
<stop offset="0.92" stop-color="#6668EB"/>
</linearGradient>
<linearGradient id="paint1_linear_319_2247" x1="103.842" y1="152.764" x2="136.513" y2="14.5173" gradientUnits="userSpaceOnUse">
<stop stop-color="#5521FF"/>
<stop offset="1" stop-color="#4B1AEB"/>
</linearGradient>
<linearGradient id="paint2_linear_319_2247" x1="1227.38" y1="24.5842" x2="851.417" y2="261.098" gradientUnits="userSpaceOnUse">
<stop stop-color="#5323F5"/>
<stop offset="1" stop-color="#5946F5"/>
</linearGradient>
<linearGradient id="paint3_linear_319_2247" x1="1104.62" y1="34.4591" x2="999.738" y2="88.2959" gradientUnits="userSpaceOnUse">
<stop stop-color="#5323F5"/>
<stop offset="1" stop-color="#5330F5"/>
</linearGradient>
<linearGradient id="paint4_linear_319_2247" x1="704.558" y1="16.6719" x2="171.942" y2="421.879" gradientUnits="userSpaceOnUse">
<stop stop-color="#5625F7"/>
<stop offset="0.3" stop-color="#5930F9"/>
<stop offset="0.81" stop-color="#624DFD"/>
<stop offset="1" stop-color="#6659FF"/>
</linearGradient>
<linearGradient id="paint5_linear_319_2247" x1="90792.2" y1="2552.45" x2="62394.9" y2="25568.7" gradientUnits="userSpaceOnUse">
<stop stop-color="#5323F5"/>
<stop offset="1" stop-color="#5330F5"/>
</linearGradient>
<linearGradient id="paint6_linear_319_2247" x1="1089.47" y1="315.169" x2="452.323" y2="-618.584" gradientUnits="userSpaceOnUse">
<stop offset="0.03" stop-color="white"/>
<stop offset="1" stop-color="#CCBDFF"/>
</linearGradient>
<linearGradient id="paint7_linear_319_2247" x1="1145.58" y1="229.943" x2="1283.71" y2="586.435" gradientUnits="userSpaceOnUse">
<stop stop-color="white"/>
<stop offset="1" stop-color="#CCBDFF"/>
</linearGradient>
<linearGradient id="paint8_linear_319_2247" x1="1035.23" y1="484.725" x2="787.12" y2="32.5748" gradientUnits="userSpaceOnUse">
<stop offset="0.03" stop-color="white"/>
<stop offset="1" stop-color="#CCBDFF"/>
</linearGradient>
<linearGradient id="paint9_linear_319_2247" x1="1541.13" y1="247.003" x2="-0.472029" y2="247.003" gradientUnits="userSpaceOnUse">
<stop stop-color="white"/>
<stop offset="1" stop-color="#CCBDFF"/>
</linearGradient>
<linearGradient id="paint10_linear_319_2247" x1="478.522" y1="308.891" x2="510.711" y2="233.932" gradientUnits="userSpaceOnUse">
<stop stop-color="white"/>
<stop offset="1" stop-color="#CCBDFF"/>
</linearGradient>
<clipPath id="clip0_319_2247">
<rect width="1544" height="482" fill="white" transform="translate(4)"/>
</clipPath>
</defs>
</svg>
