<svg width="1552" height="494" viewBox="0 0 1552 494" fill="none" xmlns="http://www.w3.org/2000/svg">
<g filter="url(#filter0_d_319_2247)">
<g clip-path="url(#clip0_319_2247)">
<rect x="4" width="1544" height="482" rx="10" fill="#4F545C" fill-opacity="0.4"/>
<path d="M1548 0H2.54883V483.452H1548V0Z" fill="url(#paint0_linear_319_2247)"/>
<path d="M1329.98 0C1098.31 119.911 817.367 273.117 817.367 273.117C892.09 206.281 1120.44 42.878 1209.78 0H1329.98Z" fill="url(#paint1_linear_319_2247)"/>
<path d="M999.135 106.519C1076.93 44.2295 1124.12 13.3917 1124.12 13.3917C1064.76 24.3262 1029.61 58.8498 999.135 106.519Z" fill="url(#paint2_linear_319_2247)"/>
<path d="M854.114 0C572.185 185.518 145.111 483.452 145.111 483.452H2.54883L598.854 0H854.114Z" fill="url(#paint3_linear_319_2247)"/>
<path d="M542.935 0C478.782 48.1609 403.199 106.396 317.785 174.706C359.816 109.222 404.059 50.3723 454.325 0H542.935Z" fill="url(#paint4_linear_319_2247)"/>
<path d="M277.35 0C128.274 117.208 2.54883 288.105 2.54883 288.105V0H277.35Z" fill="url(#paint5_linear_319_2247)"/>
<path d="M1109.87 60.8155L1115.52 58.2353C1115.64 58.2353 1115.64 58.1125 1115.52 57.9897L1109.87 55.5325H1109.74L1107.16 49.7581H1106.92L1104.46 55.5325C1104.43 55.5325 1104.39 55.5454 1104.37 55.5685C1104.35 55.5914 1104.33 55.6228 1104.33 55.6553L1098.68 58.1125C1098.56 58.2353 1098.56 58.3583 1098.68 58.3583L1104.33 60.9383H1104.46L1106.92 66.7127H1107.16L1109.74 60.9383L1109.87 60.8155Z" fill="#5047FF"/>
<path d="M985.001 381.847L990.777 379.389C990.9 379.267 990.9 379.144 990.777 379.144L985.001 376.564L982.419 370.912C982.419 370.79 982.296 370.79 982.174 370.912L979.716 376.564H979.593L973.939 379.144C973.817 379.144 973.817 379.267 973.939 379.389L979.593 381.847H979.716L982.174 387.499C982.296 387.621 982.419 387.621 982.419 387.499L985.001 381.847Z" fill="#8088FF"/>
<path d="M407.254 33.172H406.886L396.07 48.5294V48.898L406.886 64.2553H407.254C410.941 58.9725 414.26 54.181 418.069 48.898V48.5294C414.26 43.2464 410.941 38.455 407.254 33.172Z" fill="#584FFF"/>
<path d="M438.595 69.9069L442.159 68.3098C442.281 68.3098 442.281 68.187 442.159 68.187L438.595 66.4669L436.874 62.904C436.874 62.7812 436.874 62.7812 436.75 62.904L435.153 66.4669L431.467 68.187L435.153 69.7841L436.75 73.47H436.874L438.595 69.7841V69.9069Z" fill="#5047FF"/>
<path d="M1525.7 221.158L1527.41 220.425C1527.54 220.425 1527.54 220.425 1527.41 220.303L1525.7 219.568L1524.96 217.857L1524.1 219.568L1522.39 220.303L1524.1 221.036L1524.96 222.748L1525.7 221.036V221.158Z" fill="#B8A3FF"/>
<path d="M1283.56 446.415L1289.2 443.968C1289.32 443.846 1289.32 443.723 1289.2 443.723L1283.56 441.156H1283.44L1280.87 435.409H1280.62L1278.17 441.156H1278.05L1272.41 443.723C1272.29 443.723 1272.29 443.846 1272.41 443.968L1278.05 446.415H1278.17L1280.62 452.039H1280.87L1283.44 446.415C1283.46 446.403 1283.48 446.397 1283.5 446.397C1283.52 446.397 1283.54 446.403 1283.56 446.415Z" fill="#CCBDFF"/>
<path d="M1421.05 420.978L1423.38 419.999C1423.5 419.999 1423.5 419.877 1423.38 419.877L1421.05 418.899L1419.95 416.576L1418.85 418.899L1416.52 419.877C1416.4 419.877 1416.4 419.999 1416.52 419.999L1418.85 420.978L1419.95 423.302L1421.05 420.978Z" fill="#CCBDFF"/>
<path d="M4.00004 65.7574C64.2217 33.325 101.065 80.5105 121.261 107.822C186.624 68.3179 266.552 112.211 261.656 196.341C322.612 203.777 398.012 264.863 322.367 381.668H4.00004V65.7574Z" fill="#7E61FF"/>
<path d="M129.95 243.77C161.53 220.848 215.631 219.386 235.583 243.77C257.125 238.527 288.216 239.26 305.964 259.987H129.95V243.77Z" fill="#9F80FF"/>
<path d="M684.272 482C764.825 401.477 927.034 397.802 1012.62 419.494C1081.51 344.977 1221.37 322.671 1307.82 371.941C1401.26 425.255 1420.91 482 1420.91 482H684.272Z" fill="#7269FF"/>
<path d="M535.693 406.135C501.926 342.036 415.111 350.492 358.135 389.712C255.234 361.645 79.0265 401.968 86.2713 482H812.469C782.631 406.748 625.7 370.347 535.693 406.135Z" fill="#7269FF"/>
<path d="M946.313 482C925.806 449.399 863.919 434.692 817.994 443.516C795.523 400.62 726.268 376.844 675.554 424.396C629.752 420.353 569.093 435.426 563.321 482H946.313Z" fill="#7A73FF"/>
<path d="M1000.96 462.758H769C799.452 448.787 852.745 445.967 878.531 454.423C913.773 436.898 968.538 436.407 1000.96 462.758Z" fill="#8088FF"/>
<path d="M442.494 443.393H562.954C535.817 431.751 479.824 432.608 442.494 443.393Z" fill="#8088FF"/>
<path d="M1548 87.7409V197.899L1280.73 324.403L1239.71 247.793C1201.76 156.055 1269.1 105.43 1335.09 121.898C1336.19 110.187 1347.21 85.4231 1374.88 84.2031C1374.63 33.9428 1401.08 15.8882 1433.77 20.7679C1452.5 23.5736 1464.99 36.2606 1471.85 55.6573C1501.6 53.2173 1527.8 57.9751 1548 87.7409Z" fill="#6B52FB"/>
<path d="M1413.32 245.596C1386.39 246.085 1363.98 254.99 1349.78 278.168C1280.73 227.664 1163.56 267.677 1190.13 401.99C1111.4 399.794 1074.31 424.802 1060.84 480.552H1548V134.951C1483.97 105.551 1404.51 147.395 1413.32 245.596Z" fill="#CCBDFF"/>
<path d="M1413.32 245.596C1392.02 245.963 1364.6 252.428 1348.8 277.194C1318.07 249.623 1257.83 245.596 1218.04 282.804C1260.77 254.502 1305.95 279.632 1320.52 315.986C1327.38 310.252 1333.5 305.129 1339.25 300.858L1339.62 300.615L1340.97 299.761C1358.23 287.806 1400.22 271.46 1446.75 295.857C1453.36 259.504 1456.29 243.401 1480.78 221.32C1436.34 210.708 1423.49 227.176 1413.32 245.596Z" fill="url(#paint6_linear_319_2247)"/>
<path d="M1201.27 438.098C1196.37 426.457 1192.64 414.363 1190.13 401.99C1126.22 398.818 1093.29 416.994 1077.98 441.758C1098.06 421.387 1152.91 419.801 1201.27 438.098Z" fill="url(#paint7_linear_319_2247)"/>
<path d="M1244.85 313.912C1221.1 313.912 1211.43 330.015 1210.82 346.483C1228.08 329.77 1244.85 313.912 1244.85 313.912Z" fill="url(#paint8_linear_319_2247)"/>
<path d="M324.081 371.672C310.984 309.002 233.38 316.927 210.248 321.315C198.863 262.061 147.945 232.798 93.1086 226.701C83.5612 203.048 55.164 174.273 4 188.782V480.552H491.037C478.43 416.053 431.672 367.77 324.081 371.672Z" fill="#CCBDFF"/>
<path d="M71.5657 253.038C130.441 251.574 185.033 280.959 210.248 321.317C198.863 262.06 147.945 232.798 93.1086 226.701C86.9886 211.461 72.9122 194.025 50.0229 187.563C64.4665 202.195 64.956 214.264 71.5657 253.038Z" fill="url(#paint9_linear_319_2247)"/>
<path d="M324.081 371.672C315.145 328.875 275.976 318.999 244.765 318.511C273.774 322.048 300.702 342.653 301.191 374.476C247.824 386.425 236.074 403.738 236.074 403.738C320.531 402.885 385.404 417.151 430.081 480.552L491.037 480.552C478.429 416.053 431.672 367.77 324.081 371.672Z" fill="url(#paint10_linear_319_2247)"/>
</g>
</g>
<defs>
<filter id="filter0_d_319_2247" x="0" y="0" width="1552" height="494" filterUnits="userSpaceOnUse" color-interpolation-filters="sRGB">
<feFlood flood-opacity="0" result="BackgroundImageFix"/>
<feColorMatrix in="SourceAlpha" type="matrix" values="0 0 0 0 0 0 0 0 0 0 0 0 0 0 0 0 0 0 127 0" result="hardAlpha"/>
<feMorphology radius="6" operator="erode" in="SourceAlpha" result="effect1_dropShadow_319_2247"/>
<feOffset dy="8"/>
<feGaussianBlur stdDeviation="5"/>
<feColorMatrix type="matrix" values="0 0 0 0 0 0 0 0 0 0 0 0 0 0 0 0 0 0 0.05 0"/>
<feBlend mode="normal" in2="BackgroundImageFix" result="effect1_dropShadow_319_2247"/>
<feBlend mode="normal" in="SourceGraphic" in2="effect1_dropShadow_319_2247" result="shape"/>
</filter>
<linearGradient id="paint0_linear_319_2247" x1="775.274" y1="32.1646" x2="775.274" y2="555.509" gradientUnits="userSpaceOnUse">
<stop stop-color="#4E1BF5"/>
<stop offset="0.58" stop-color="#5E4EEE"/>
<stop offset="0.92" stop-color="#6668EB"/>
</linearGradient>
<linearGradient id="paint1_linear_319_2247" x1="1227.38" y1="24.5842" x2="851.417" y2="261.098" gradientUnits="userSpaceOnUse">
<stop stop-color="#5323F5"/>
<stop offset="1" stop-color="#5946F5"/>
</linearGradient>
<linearGradient id="paint2_linear_319_2247" x1="1104.62" y1="34.4591" x2="999.738" y2="88.2959" gradientUnits="userSpaceOnUse">
<stop stop-color="#5323F5"/>
<stop offset="1" stop-color="#5330F5"/>
</linearGradient>
<linearGradient id="paint3_linear_319_2247" x1="704.558" y1="16.6719" x2="171.942" y2="421.879" gradientUnits="userSpaceOnUse">
<stop stop-color="#5625F7"/>
<stop offset="0.3" stop-color="#5930F9"/>
<stop offset="0.81" stop-color="#624DFD"/>
<stop offset="1" stop-color="#6659FF"/>
</linearGradient>
<linearGradient id="paint4_linear_319_2247" x1="90792.2" y1="2552.45" x2="62394.9" y2="25568.7" gradientUnits="userSpaceOnUse">
<stop stop-color="#5323F5"/>
<stop offset="1" stop-color="#5330F5"/>
</linearGradient>
<linearGradient id="paint5_linear_319_2247" x1="103.842" y1="152.764" x2="136.513" y2="14.5173" gradientUnits="userSpaceOnUse">
<stop stop-color="#5521FF"/>
<stop offset="1" stop-color="#4B1AEB"/>
</linearGradient>
<linearGradient id="paint6_linear_319_2247" x1="1035.67" y1="483.27" x2="788.373" y2="31.8912" gradientUnits="userSpaceOnUse">
<stop offset="0.03" stop-color="white"/>
<stop offset="1" stop-color="#CCBDFF"/>
</linearGradient>
<linearGradient id="paint7_linear_319_2247" x1="1541.14" y1="246.126" x2="0.858799" y2="246.126" gradientUnits="userSpaceOnUse">
<stop stop-color="white"/>
<stop offset="1" stop-color="#CCBDFF"/>
</linearGradient>
<linearGradient id="paint8_linear_319_2247" x1="479.441" y1="307.864" x2="511.516" y2="233.051" gradientUnits="userSpaceOnUse">
<stop stop-color="white"/>
<stop offset="1" stop-color="#CCBDFF"/>
</linearGradient>
<linearGradient id="paint9_linear_319_2247" x1="1089.87" y1="314.126" x2="454.632" y2="-618.287" gradientUnits="userSpaceOnUse">
<stop offset="0.03" stop-color="white"/>
<stop offset="1" stop-color="#CCBDFF"/>
</linearGradient>
<linearGradient id="paint10_linear_319_2247" x1="364.208" y1="318.698" x2="491.347" y2="480.68" gradientUnits="userSpaceOnUse">
<stop stop-color="white"/>
<stop offset="1" stop-color="#CCBDFF"/>
</linearGradient>
<clipPath id="clip0_319_2247">
<rect x="4" width="1544" height="482" rx="10" fill="white"/>
</clipPath>
</defs>
</svg>
